#!OML:ASF \\sashay\E\Suitcase\Project 1\Capture day 1\Session 1\Male1.ASF
:FULLY-SPECIFIED
:DEGREES
347
root -0.644797 17.3936 -31.6387 3.02608 0.842714 -3.96979
lowerback 11.7935 -0.515362 7.4816
upperback 3.10897 0.425498 5.36388
thorax -3.33456 0.174896 1.34824
lowerneck -15.0567 -1.5148 -1.97011
upperneck 7.95165 -1.1633 -4.0834
head 4.82582 -0.914041 -1.05652
rclavicle -1.07344e-014 -8.42847e-014
rhumerus -41.131 -31.8125 -55.2416
rradius 13.4507
rwrist -1.20507
rhand -19.5982 17.5318
rfingers 7.12502
rthumb 6.72767 -12.3413
lclavicle -1.07344e-014 -8.42847e-014
lhumerus -38.0328 1.90664 88.3625
lradius 32.7076
lwrist -2.26353
lhand -2.91141 40.5195
lfingers 7.12502
lthumb 22.799 69.1922
rfemur -0.0577219 0.952183 29.5037
rtibia 18.584
rfoot -21.2902 -10.0866
rtoes 14.2128
lfemur -29.154 0.720478 -10.6419
ltibia 49.5498
lfoot -15.9307 -3.83177
ltoes -7.37785
348
root -0.643971 17.3947 -31.5878 2.98624 0.86077 -3.88175
lowerback 11.9816 -0.414164 7.42091
upperback 2.90186 0.585593 5.2041
thorax -3.65097 0.24373 1.19281
lowerneck -14.4359 -1.46373 -2.14234
upperneck 7.59484 -1.13733 -3.72418
head 4.61684 -0.869338 -0.905523
rclavicle 5.1684e-015 -2.22639e-014
rhumerus -42.2867 -33.8342 -53.4186
rradius 12.6694
rwrist 1.20242
rhand -19.5019 18.1952
rfingers 7.12502
rthumb 6.82067 -11.675
lclavicle 5.1684e-015 -2.22639e-014
lhumerus -38.4118 2.04867 88.1115
lradius 32.5432
lwrist -2.50058
lhand -2.96961 39.6235
lfingers 7.12502
lthumb 22.7431 68.303
rfemur 0.360482 0.913153 29.4062
rtibia 18.2464
rfoot -21.1267 -10.1381
rtoes 14.6637
lfemur -29.2735 0.535132 -10.8112
ltibia 48.7367
lfoot -15.7398 -3.92255
ltoes -3.45269
349
root -0.647229 17.3905 -31.5375 3.1096 1.27573 -3.76172
lowerback 11.9834 -0.430943 7.39642
upperback 2.62626 0.57647 4.99435
thorax -3.94145 0.228426 0.988874
lowerneck -13.9067 -1.65749 -1.49314
upperneck 6.7266 -1.5179 -4.23088
head 4.24977 -1.04829 -1.18354
rclavicle 8.74653e-015 1.59028e-015
rhumerus -42.9479 -33.8948 -53.3247
rradius 12.7773
rwrist 1.14405
rhand -19.0141 18.2872
rfingers 7.12502
rthumb 7.29152 -11.5672
lclavicle 8.74653e-015 1.59028e-015
lhumerus -38.596 1.75989 87.8438
lradius 32.1203
lwrist -2.24021
lhand -3.15838 39.9513
lfingers 7.12502
lthumb 22.562 68.653
rfemur 0.64686 0.756348 29.3917
rtibia 17.8123
rfoot -21.2434 -10.6571
rtoes 12.3119
lfemur -29.7852 0.434744 -11.0966
ltibia 47.9674
lfoot -15.4473 -3.73704
ltoes -3.61602
350
root -0.646432 17.3934 -31.4785 3.38982 1.1748 -3.87632
lowerback 11.6155 -0.242128 7.55969
upperback 2.47289 0.809609 4.84607
thorax -3.88676 0.340188 0.706844
lowerneck -13.9333 -1.69808 -1.35748
upperneck 6.90996 -1.58553 -4.26593
head 4.30816 -1.08343 -1.2232
rclavicle 3.97569e-016 9.54166e-015
rhumerus -43.5692 -34.636 -52.6768
rradius 12.3708
rwrist 1.85114
rhand -19.5602 17.4713
rfingers 7.12502
rthumb 6.76438 -12.4007
lclavicle 3.97569e-016 9.54166e-015
lhumerus -38.7808 1.74068 87.5585
lradius 31.8882
lwrist -2.24964
lhand -3.22439 38.9637
lfingers 7.12502
lthumb 22.4986 67.6731
rfemur 0.801696 0.994344 29.4854
rtibia 17.454
rfoot -21.2413 -10.5343
rtoes 14.3353
lfemur -30.2167 0.486469 -11.1025
ltibia 47.12
lfoot -15.4664 -3.1616
ltoes -5.88208
351
root -0.649509 17.3867 -31.4285 3.26598 1.35392 -3.99493
lowerback 11.7446 -0.269456 7.49779
upperback 2.48126 0.784804 4.93614
thorax -3.95277 0.327519 0.839943
lowerneck -13.8455 -1.64591 -1.63425
upperneck 6.59627 -1.47832 -4.27991
head 4.20139 -1.03237 -1.17125
rclavicle 7.55382e-015 2.22639e-014
rhumerus -43.4554 -34.5945 -52.7901
rradius 12.3616
rwrist 1.37347
rhand -19.2943 17.4733
rfingers 7.12502
rthumb 7.02103 -12.3903
lclavicle 7.55382e-015 2.22639e-014
lhumerus -39.0211 2.06352 87.5267
lradius 31.9421
lwrist -2.49244
lhand -3.10257 38.96
lfingers 7.12502
lthumb 22.6155 67.6551
rfemur 1.22398 0.760996 29.6764
rtibia 17.1547
rfoot -21.36 -10.7117
rtoes 12.2064
lfemur -30.3774 0.478371 -11.0803
ltibia 46.2494
lfoot -15.2297 -3.17228
ltoes -4.45445
352
root -0.639196 17.385 -31.38 3.63786 1.56178 -3.77731
lowerback 11.4454 -0.288676 7.45204
upperback 2.32224 0.725575 4.75853
thorax -3.95562 0.295885 0.687333
lowerneck -14.2215 -1.47763 -1.70104
upperneck 6.96282 -1.21262 -4.28117
head 4.37998 -0.914545 -1.148
rclavicle -7.15625e-015 -2.06736e-014
rhumerus -43.8864 -35.5094 -52.0965
rradius 12.0206
rwrist 2.47297
rhand -19.39 17.4956
rfingers 7.12502
rthumb 6.92866 -12.371
lclavicle -7.15625e-015 -2.06736e-014
lhumerus -39.1106 2.34163 87.2805
lradius 31.8094
lwrist -2.83441
lhand -2.71715 39.1935
lfingers 7.12502
lthumb 22.9854 67.8431
rfemur 1.28567 0.770583 29.4217
rtibia 16.6294
rfoot -21.1031 -10.8599
rtoes 13.4306
lfemur -31.0011 0.307328 -11.5039
ltibia 45.2974
lfoot -15.2028 -3.0616
ltoes -5.39322
